# xmcd
#
# Track frame offsets:
#	150
#	18330
#	32609
#	45504
#	59243
#	78944
#	92729
#	107875
#	127431
#	138484
#	150342
#	168216
#	187491
#	200026
#	217445
#	230765
#	248665
#	260933
#	275960
#	288905
#	306861
#	321497
#
# Disc length: 4424 seconds
#
# Revision: 4
# Processed by: cddbd v1.5.2PL0 Copyright (c) Steve Scherf et al.
# Submitted via: audiograbber 1.83.01
#
DISCID=65114616
DTITLE=Hank Williams Jr - All my Rowdy Friends: Best Of Hank Jr
DYEAR=2012
DGENRE=Country
TTITLE0=Family Tradition
TTITLE1=Whiskey Bent And Hell Bound
TTITLE2=Women I've Never Had
TTITLE3=Outlaw Women
TTITLE4=Kaw-Liga
TTITLE5=Old Habits
TTITLE6=Dinosaur
TTITLE7=The Blues Man
TTITLE8=Texas Women
TTITLE9=Dixie On My Mind
TTITLE10=All My Rowdy Friends (Have Settled Down)
TTITLE11=A Country Boy Can Survive
TTITLE12=If Heaven Ain't A Lot Like Dixie
TTITLE13=The Conversation (featuring Waylon Jennings)
TTITLE14=All My Rowdy Friends Are Coming Over Tonight
TTITLE15=Country State Of Mind
TTITLE16=Born To Boogie
TTITLE17=If The South Woulda Won
TTITLE18=There's A Tear In My Beer (featuring Hank Williams Sr)
TTITLE19=Red, White and Pink Slip Blues
TTITLE20=Bartender Song (Sittin' At A Bar) (featuring Rehab)
TTITLE21=All My Rowdy Friends Are Coming Over For Monday Night Football
EXTD=
EXTT0=
EXTT1=
EXTT2=
EXTT3=
EXTT4=
EXTT5=
EXTT6=
EXTT7=
EXTT8=
EXTT9=
EXTT10=
EXTT11=
EXTT12=
EXTT13=
EXTT14=
EXTT15=
EXTT16=
EXTT17=
EXTT18=
EXTT19=
EXTT20=
EXTT21=
PLAYORDER=
